<mxfile host="65bd71144e">
    <diagram name="Страница 1" id="-ZOvvtcII1h53nht0Fck">
        <mxGraphModel dx="464" dy="912" grid="1" gridSize="10" guides="1" tooltips="1" connect="1" arrows="1" fold="1" page="1" pageScale="1" pageWidth="827" pageHeight="1169" math="0" shadow="0">
            <root>
                <mxCell id="0"/>
                <mxCell id="1" parent="0"/>
                <mxCell id="Gfwd-G6zfAApOkq1bVad-13" style="edgeStyle=orthogonalEdgeStyle;rounded=0;orthogonalLoop=1;jettySize=auto;html=1;entryX=0;entryY=0.5;entryDx=0;entryDy=0;" parent="1" source="Gfwd-G6zfAApOkq1bVad-1" target="Gfwd-G6zfAApOkq1bVad-8" edge="1">
                    <mxGeometry relative="1" as="geometry"/>
                </mxCell>
                <mxCell id="Gfwd-G6zfAApOkq1bVad-1" value="array2[count]=array1[i]&lt;br&gt;count++;" style="rounded=0;whiteSpace=wrap;html=1;" parent="1" vertex="1">
                    <mxGeometry x="50" y="430" width="170" height="60" as="geometry"/>
                </mxCell>
                <mxCell id="Gfwd-G6zfAApOkq1bVad-10" style="edgeStyle=orthogonalEdgeStyle;rounded=0;orthogonalLoop=1;jettySize=auto;html=1;entryX=0.5;entryY=0;entryDx=0;entryDy=0;" parent="1" source="Gfwd-G6zfAApOkq1bVad-2" target="Gfwd-G6zfAApOkq1bVad-3" edge="1">
                    <mxGeometry relative="1" as="geometry"/>
                </mxCell>
                <mxCell id="Gfwd-G6zfAApOkq1bVad-2" value="SecondArrayWithIf" style="rounded=1;whiteSpace=wrap;html=1;" parent="1" vertex="1">
                    <mxGeometry x="420" y="120" width="120" height="60" as="geometry"/>
                </mxCell>
                <mxCell id="Gfwd-G6zfAApOkq1bVad-11" style="edgeStyle=orthogonalEdgeStyle;rounded=0;orthogonalLoop=1;jettySize=auto;html=1;entryX=0.5;entryY=0;entryDx=0;entryDy=0;" parent="1" source="Gfwd-G6zfAApOkq1bVad-3" target="Gfwd-G6zfAApOkq1bVad-8" edge="1">
                    <mxGeometry relative="1" as="geometry"/>
                </mxCell>
                <mxCell id="Gfwd-G6zfAApOkq1bVad-3" value="string[] array1&lt;br&gt;string array2&lt;br&gt;int count=0" style="shape=parallelogram;perimeter=parallelogramPerimeter;whiteSpace=wrap;html=1;fixedSize=1;" parent="1" vertex="1">
                    <mxGeometry x="420" y="280" width="120" height="60" as="geometry"/>
                </mxCell>
                <mxCell id="Gfwd-G6zfAApOkq1bVad-14" style="edgeStyle=orthogonalEdgeStyle;rounded=0;orthogonalLoop=1;jettySize=auto;html=1;entryX=0.5;entryY=1;entryDx=0;entryDy=0;" parent="1" source="Gfwd-G6zfAApOkq1bVad-4" target="Gfwd-G6zfAApOkq1bVad-1" edge="1">
                    <mxGeometry relative="1" as="geometry">
                        <mxPoint x="120" y="620" as="targetPoint"/>
                        <Array as="points">
                            <mxPoint x="135" y="620"/>
                        </Array>
                    </mxGeometry>
                </mxCell>
                <mxCell id="Gfwd-G6zfAApOkq1bVad-19" value="Yes" style="edgeLabel;html=1;align=center;verticalAlign=middle;resizable=0;points=[];" parent="Gfwd-G6zfAApOkq1bVad-14" vertex="1" connectable="0">
                    <mxGeometry x="-0.6732" y="1" relative="1" as="geometry">
                        <mxPoint as="offset"/>
                    </mxGeometry>
                </mxCell>
                <mxCell id="Gfwd-G6zfAApOkq1bVad-15" style="edgeStyle=orthogonalEdgeStyle;rounded=0;orthogonalLoop=1;jettySize=auto;html=1;entryX=1;entryY=0.5;entryDx=0;entryDy=0;" parent="1" source="Gfwd-G6zfAApOkq1bVad-4" target="Gfwd-G6zfAApOkq1bVad-8" edge="1">
                    <mxGeometry relative="1" as="geometry">
                        <mxPoint x="670" y="450" as="targetPoint"/>
                        <Array as="points">
                            <mxPoint x="670" y="620"/>
                            <mxPoint x="670" y="460"/>
                        </Array>
                    </mxGeometry>
                </mxCell>
                <mxCell id="Gfwd-G6zfAApOkq1bVad-18" value="No" style="edgeLabel;html=1;align=center;verticalAlign=middle;resizable=0;points=[];" parent="Gfwd-G6zfAApOkq1bVad-15" vertex="1" connectable="0">
                    <mxGeometry x="-0.7831" y="1" relative="1" as="geometry">
                        <mxPoint as="offset"/>
                    </mxGeometry>
                </mxCell>
                <mxCell id="Gfwd-G6zfAApOkq1bVad-4" value="if (array1[i].lenght &amp;lt;=3)" style="rhombus;whiteSpace=wrap;html=1;" parent="1" vertex="1">
                    <mxGeometry x="415" y="580" width="130" height="80" as="geometry"/>
                </mxCell>
                <mxCell id="Gfwd-G6zfAApOkq1bVad-12" style="edgeStyle=orthogonalEdgeStyle;rounded=0;orthogonalLoop=1;jettySize=auto;html=1;entryX=0.5;entryY=0;entryDx=0;entryDy=0;" parent="1" source="Gfwd-G6zfAApOkq1bVad-8" target="Gfwd-G6zfAApOkq1bVad-4" edge="1">
                    <mxGeometry relative="1" as="geometry"/>
                </mxCell>
                <mxCell id="Gfwd-G6zfAApOkq1bVad-8" value="for (int i=0;&lt;br&gt;i&amp;lt;array1.lenght;&lt;br&gt;i++)" style="shape=hexagon;perimeter=hexagonPerimeter2;whiteSpace=wrap;html=1;fixedSize=1;" parent="1" vertex="1">
                    <mxGeometry x="420" y="420" width="120" height="80" as="geometry"/>
                </mxCell>
            </root>
        </mxGraphModel>
    </diagram>
</mxfile>